PathFileType	4	(X/Y/Z)	4_coords_data.trc
DataRate	CameraRate	NumFrames	NumMarkers	Units	OrigDataRate	OrigDataStartFrame	OrigNumFrames
30.0	30.0	6	21	m	30.0	20	49
Frame#	Time	THUMB_TIP	THUMB_IP	THUMB_MCP	THUMB_CMC	INDEX_TIP	INDEX_DIP	INDEX_PIP	INDEX_MCP	MIDDLE_TIP	MIDDLE_DIP	MIDDLE_PIP	MIDDLE_MCP	RING_TIP	RING_DIP	RING_PIP	RING_MCP	PINKY_TIP	PINKY_DIP	PINKY_PIP	PINKY_MCP	WRIST
X1	Y1	Z1	X2	Y2	Z2	X3	Y3	Z3	X4	Y4	Z4	X5	Y5	Z5	X6	Y6	Z6	X7	Y7	Z7	X8	Y8	Z8	X9	Y9	Z9	X10	Y10	Z10	X11	Y11	Z11	X12	Y12	Z12	X13	Y13	Z13	X14	Y14	Z14	X15	Y15	Z15	X16	Y16	Z16	X17	Y17	Z17	X18	Y18	Z18	X19	Y19	Z19	X20	Y20	Z20	X21	Y21	Z21
18	0.6333333333333304	0.538260210722134	-0.03094737204358944	-0.13602615173835886	0.5231142210502864	-0.023528382084105237	-0.12041982017577324	0.493535769513197	-0.01629296335542918	-0.11397126060880147	0.4694939138702776	-0.02974180925254144	-0.07888554098840972	0.5675707839894724	0.04997311907777513	-0.16112057150212195	0.5537650452577197	0.04246009920649152	-0.15212301013893692	0.5355970540123981	0.03325496882349921	-0.13738532030158346	0.5061304804772441	0.02170720072832444	-0.10888959798897258	0.5115516409595898	-0.011367473024524788	-0.11743715474530708	0.5271568561383194	-0.010613014785745722	-0.1265972885866593	0.5465141046214573	0.009895824975913348	-0.1192424280990192	0.5211401370235075	0.02286692888330122	-0.08483225296488273	0.5258198581774834	-0.024217116102875913	-0.10727992075331605	0.5421655167186096	-0.02278542720308585	-0.11474783302858604	0.5583727897183287	-0.005865697892996402	-0.10630822160471848	0.5338942551998855	0.0039035084313825408	-0.07564741943613346	0.5943190387547893	0.02393255329291777	-0.0762015242023189	0.5812137763631835	0.012944561698552959	-0.075483096495915	0.5639820321477798	0.0011442110910989678	-0.07333118203756273	0.5340965351343748	-0.018509953416399605	-0.06869929939937475	0.4622830810018608	-0.023011742144276925	-0.051989820119430985
19	0.6666666666666637	0.5387060339557957	-0.030750749422933987	-0.13547241891885348	0.523339207048488	-0.023301730328227688	-0.12009800038261137	0.493703330270552	-0.016136790494409525	-0.11383713424598563	0.4695358649595306	-0.029704259499430896	-0.07888363077010546	0.567943010339431	0.04935712952804083	-0.1608132084620334	0.55400124047784	0.04209661617220828	-0.1518180987386218	0.5355859936401532	0.03319369808484063	-0.13720212916980118	0.5058730523790961	0.02208828906214033	-0.10878651539751921	0.5109516151737269	-0.010317115429731571	-0.11648953929971179	0.5263883367936749	-0.009910951447729133	-0.1259522374586911	0.5461718021860547	0.01031608430242803	-0.11896002237115338	0.5209095127194905	0.02339092668091114	-0.08450696519642137	0.5252563700745527	-0.023750847878737602	-0.10696322586193358	0.5415465801112742	-0.02224401867851633	-0.1145367668251065	0.5579417454816137	-0.0053553761572697756	-0.10640336131027034	0.5337772604214053	0.004359607656621245	-0.07547735954362084	0.5944804847004413	0.023838562971095767	-0.07696188694625972	0.5812648793315525	0.012993845039665719	-0.07610173130830117	0.5639659234480185	0.0013203231760734457	-0.07380237669454903	0.5340752765790153	-0.018211045024151495	-0.06870744421415304	0.4622830810018609	-0.023011742144276925	-0.051989820119430985
20	0.6999999999999968	0.5387834643110145	-0.03060056284173751	-0.13526286414588218	0.5232106374116762	-0.023081605910938108	-0.12013169270953822	0.49356294877850027	-0.015941661135301155	-0.11389825486906091	0.4695242606556034	-0.029633179618640648	-0.07890434404231178	0.5682454449205447	0.0477030430037515	-0.16099255663929485	0.5541409746171364	0.04107907262683719	-0.15176287983530912	0.5354464123503176	0.032944957512769824	-0.137053721261035	0.5054480129895554	0.02271581323089633	-0.10860909545838393	0.510217902045566	-0.009350450584147851	-0.1159277552238751	0.5256205091116624	-0.009076154605266229	-0.1254505939436797	0.5457661754774467	0.01090381686762154	-0.11879008220499959	0.5206210321896064	0.023939822088337892	-0.08423675735890923	0.5248890247438431	-0.02332774962375095	-0.10723511094963473	0.5412531228076266	-0.021288779078792452	-0.11451926455013423	0.5576317704723739	-0.004351773034984574	-0.10645342882492348	0.5336087929850153	0.004951573283619504	-0.07529151081723379	0.5951978643681561	0.022813588486032765	-0.07876869629918182	0.5817000358856429	0.012378674884899965	-0.07738262112317112	0.5641426264708217	0.0012373206517060087	-0.07448096306426222	0.5340825368181794	-0.017791485178668465	-0.06854977349175484	0.4622830810018608	-0.023011742144276925	-0.051989820119430985
21	0.7333333333333302	0.5379145659182797	-0.031018219701741123	-0.1359768998021602	0.5223934938421415	-0.023302439857367352	-0.12089170629990514	0.4928595966389051	-0.015952857014358002	-0.1143684748903655	0.46939883699287943	-0.029565859897448643	-0.07895422762550913	0.5682192460103581	0.04440164993088502	-0.16212265406027898	0.5539577488904418	0.038833568685537556	-0.152447625835833	0.5350565673340227	0.03205938862631419	-0.13731931947667608	0.5048765115065569	0.023279036678393483	-0.10858422344548646	0.5098130935500361	-0.009206972984445283	-0.11663910936783267	0.5253933225752708	-0.008572871403406568	-0.1258507530162895	0.5455210875330343	0.011378545109323124	-0.11905195849515443	0.5203936725464867	0.024124394142659433	-0.08437769902918707	0.525243027044222	-0.02292644002739297	-0.10820565366487223	0.5417448629622639	-0.02007573844864119	-0.1148811994734879	0.55782711359809	-0.0029942036615765444	-0.10652881282027504	0.5334470610145943	0.0053039779391386155	-0.07536033431798783	0.5962333243402389	0.020650282103048867	-0.0817626437306398	0.5823909445395109	0.010851237674936898	-0.07944591117199573	0.5644987557907343	0.0006204912449330191	-0.07544423299114278	0.5341050147779302	-0.017452821223396864	-0.0683407595683227	0.462283081001861	-0.023011742144276925	-0.051989820119430985
22	0.7666666666666633	0.5358826767364901	-0.03175333085082155	-0.13790163871831784	0.5207940414730693	-0.02382684195228202	-0.12249047848851091	0.49154126967646483	-0.016090317892429318	-0.11519379858001072	0.46915095325670286	-0.029527932823143477	-0.07902759563310485	0.567830603337947	0.039226343167074185	-0.1641310844813409	0.5535073709604271	0.035169468054976005	-0.15381668781530156	0.5345847877055205	0.030334228022143694	-0.13798740704244206	0.5044622636945477	0.02357476157164673	-0.10865177590021197	0.5101369804320295	-0.009985256552244914	-0.11866043373067259	0.5260560832101931	-0.008568027222830565	-0.1271794493877843	0.5458029910818415	0.01150261760457083	-0.1196536008827358	0.5204407090336709	0.02367218120584469	-0.08494331001585309	0.5266926748146847	-0.022930858580093805	-0.11006166468637052	0.5433921154332617	-0.019076807350500435	-0.11565406776074699	0.5587962254006786	-0.0017627063174991964	-0.10653730953587581	0.5334570376023093	0.0049488747786159415	-0.0757541798231704	0.5974696648890516	0.016596657466822706	-0.08583299719705989	0.5832854638304227	0.00774359156187665	-0.08216807367656609	0.5650730698037434	-0.0010967620572759351	-0.07660310550906407	0.5341566442142941	-0.01765297264894261	-0.06817992495677683	0.4622830810018609	-0.023011742144276925	-0.051989820119430985
23	0.7999999999999965	0.5327226045900377	-0.032405676328350896	-0.14098933984979678	0.5184014579223347	-0.02445032007431147	-0.12487670303909915	0.4896337749086217	-0.01624200721710445	-0.1162822854287695	0.46878584906064646	-0.029472233616327448	-0.0791310391877263	0.5669827704503594	0.03225534219786852	-0.16677140144990993	0.5528502139030886	0.030150634296993384	-0.15564301207452474	0.5342678481247387	0.02773979908753965	-0.1388831377112585	0.5044177755999938	0.023411504771009284	-0.10881862154058036	0.511332983380285	-0.01173951540675866	-0.12201947743632097	0.5277371757664713	-0.009238947104755257	-0.12927548393604288	0.5468126966724152	0.010955140427655108	-0.12045885868029732	0.5209737535119316	0.022347327884955526	-0.08583639484123706	0.5291430296697738	-0.02393263459339523	-0.1127232960729343	0.5460268437581814	-0.018983375518833556	-0.11665288338472146	0.5604465115775835	-0.0014912268548407104	-0.1063437663471245	0.5337535140959764	0.0035988161713766953	-0.07640556029802759	0.5987375551235434	0.00977594682518157	-0.09082381444373483	0.5842978626574271	0.0023283903553891205	-0.08543594064108928	0.5659054030900655	-0.0045166603179037645	-0.07797439044404436	0.5342417181522553	-0.01869618167181908	-0.06811357499434884	0.4622830810018608	-0.023011742144276925	-0.051989820119430985
